<svg width="65" height="65" version="1.1" id="Layer_1" xmlns="http://www.w3.org/2000/svg" x="0" y="0" viewBox="0 0 512 512" xml:space="preserve"><path fill="#0837c3" d="M143.571 0L0 143.571l60.067 60.064 5.68-5.679c28.071-28.071 29.866-72.621 5.387-102.801L95.16 71.129a76.414 76.414 0 0033.724 15.739l3.054-15.771a60.394 60.394 0 01-25.339-11.407l36.972-36.972 26.447 26.449 11.359-11.358L143.571 0zM59.695 180.546l-36.977-36.975 36.978-36.978c16.648 21.735 16.649 52.218-.001 73.953z"/><path transform="rotate(-18.475 280.46 155.433)" d="M273.059 148.048h14.76v14.76h-14.76z"/><path fill="#0837c3" d="M333.671 2.374l-192.585 64.35 43.542 129.142 15.222-5.132-16.531-49.029c32.843-15.026 50.884-51.266 43.049-86.541l32.24-10.773c12.632 27.807 40.442 45.064 70.054 45.064 5.486 0 11.033-.608 16.557-1.834l36.201 108.334 15.237-5.091-62.986-188.49zM178.149 126.37l-16.695-49.515 49.56-16.56c5.179 26.826-8.358 54.026-32.865 66.075zm95.804-87.106L323.527 22.7l16.567 49.577c-26.876 5.186-54.129-8.414-66.141-33.013z"/><path fill="#0837c3" d="M290.499 172.203c-9.711 3.245-18.465 8.627-25.317 15.562l11.429 11.288c5.087-5.15 11.649-9.167 18.979-11.616 17.599-5.882 36.152-1.494 44.113 10.432l13.36-8.919c-12.101-18.126-37.828-25.013-62.564-16.747z"/><path d="M321.92 249.635h16.063v16.063H321.92zm-128.507 0h16.063v16.063h-16.063zm-32.126 0h16.063v16.063h-16.063zm-64.254 0h16.063v16.063H97.033zm192.761 0h16.063v16.063h-16.063zm-160.634 0h16.063v16.063H129.16zm128.507 0h16.063v16.063h-16.063zm160.633 0h16.063v16.063H418.3zm-64.253 0h16.063v16.063h-16.063zm32.127 0h16.063v16.063h-16.063zm-160.634 0h16.063v16.063H225.54zM97.033 463.813h16.063v16.063H97.033zm321.267 0h16.063v16.063H418.3zm-32.126 0h16.063v16.063h-16.063zm-32.127 0h16.063v16.063h-16.063zm-64.253 0h16.063v16.063h-16.063zm32.126 0h16.063v16.063H321.92zm-192.76 0h16.063v16.063H129.16zm128.507 0h16.063v16.063h-16.063zm-64.254 0h16.063v16.063h-16.063zm-32.126 0h16.063v16.063h-16.063zm64.253 0h16.063v16.063H225.54z"/><path fill="#0837c3" d="M458.456 303.176v-85.671H56.872V512h401.584v-80.317h32.127V303.176h-32.127zm-16.064 192.761H72.935v-16.063h8.032V463.81h-8.032V265.695h8.032v-16.063h-8.032v-16.063h369.457v69.608h-85.671c-35.429 0-64.253 28.824-64.253 64.253s28.824 64.253 64.253 64.253h85.671v64.254zm32.127-80.317H356.721c-26.572 0-48.19-21.618-48.19-48.19s21.618-48.19 48.19-48.19h117.798v96.38z"/><path d="M445.069 3.327c-36.905 0-66.931 30.026-66.931 66.931s30.026 66.931 66.931 66.931S512 107.163 512 70.258 481.974 3.327 445.069 3.327zm0 117.798c-28.048 0-50.867-22.82-50.867-50.867 0-28.048 22.82-50.867 50.867-50.867 28.048 0 50.867 22.82 50.867 50.867.001 28.048-22.819 50.867-50.867 50.867z"/><path fill="#0837c3" d="M466.72 74.688c-.412-1.271-.983-2.396-1.716-3.372a12.1 12.1 0 00-2.583-2.544 20.853 20.853 0 00-3.2-1.908 32.297 32.297 0 00-3.566-1.465 82.424 82.424 0 00-3.701-1.176l1.349-13.686c.797.231 1.549.501 2.255.81l1.985.867c.617.27 1.182.495 1.696.675s.977.27 1.388.27c.617 0 1.15-.148 1.6-.443.45-.296.893-.765 1.33-1.407l2.93-4.279c-1.388-1.311-3.084-2.538-5.089-3.682s-4.395-1.973-7.171-2.487l.773-7.596h-4.395c-.9 0-1.632.293-2.198.881-.565.588-.887 1.248-.964 1.979l-.424 4.349c-2.982 0-5.629.497-7.942 1.49-2.313.994-4.26 2.264-5.841 3.811-1.581 1.547-2.782 3.288-3.605 5.222-.822 1.935-1.234 3.922-1.234 5.958 0 2.76.456 5.056 1.369 6.887.912 1.831 2.101 3.34 3.566 4.527a17.925 17.925 0 004.935 2.824 62.755 62.755 0 005.513 1.818l-1.426 14.573c-1.157-.308-2.186-.7-3.084-1.176a47.5 47.5 0 01-2.487-1.407 28.665 28.665 0 00-2.101-1.176c-.644-.321-1.272-.482-1.889-.482-.591 0-1.15.148-1.677.443-.527.296-.945.662-1.253 1.099l-3.701 5.359c1.85 1.722 4.119 3.193 6.804 4.414a33.605 33.605 0 008.462 2.564l-.771 7.942h4.395c.9 0 1.632-.289 2.197-.867.565-.578.887-1.227.964-1.947l.463-4.819c2.981-.231 5.629-.867 7.942-1.908s4.265-2.384 5.86-4.029a16.67 16.67 0 003.624-5.686c.822-2.145 1.234-4.44 1.234-6.882 0-1.62-.205-3.066-.616-4.338zm-21.821-12.779c-1.568-.643-2.834-1.433-3.797-2.371s-1.446-2.165-1.446-3.682c0-.668.116-1.304.347-1.908a4.551 4.551 0 011.099-1.638c.501-.488 1.157-.906 1.966-1.253.81-.347 1.806-.61 2.988-.79l-1.157 11.642zm4.741 25.907l1.234-12.722c1.542.591 2.782 1.324 3.72 2.197s1.407 2.043 1.407 3.508c0 3.933-2.12 6.272-6.361 7.017zm-95.596 247.487c-16.239 0-29.449 13.211-29.449 29.449s13.211 29.449 29.449 29.449c16.239 0 29.45-13.211 29.45-29.449s-13.211-29.449-29.45-29.449zm0 42.836c-7.382 0-13.386-6.004-13.386-13.386s6.004-13.386 13.386-13.386 13.386 6.004 13.386 13.386-6.005 13.386-13.386 13.386z"/></svg>