<svg width="65" height="65" viewBox="0 0 512.004 512" xmlns="http://www.w3.org/2000/svg"><path fill="#0837c3" d="M106.012 286.098c-9.051 0-16.383-7.332-16.383-16.383V16.383c0-9.051 7.332-16.38 16.383-16.38h389.601c9.051 0 16.383 7.329 16.383 16.38 0 9.054-7.332 16.383-16.383 16.383H122.395v236.957c0 9.043-7.329 16.375-16.383 16.375zm389.609 225.894H232.47c-9.051 0-16.383-7.328-16.383-16.383 0-9.05 7.34-16.37 16.383-16.37h246.77V70.776c0-9.05 7.331-16.382 16.382-16.382 9.05 0 16.383 7.332 16.383 16.382V495.62c-.008 9.043-7.34 16.371-16.383 16.371zm0 0"/><path fill="#0837c3" d="M319.379 153.16H157.53c-9.054 0-16.383-7.328-16.383-16.383 0-9.05 7.329-16.382 16.383-16.382h161.85c9.05 0 16.383 7.332 16.383 16.382 0 9.055-7.332 16.383-16.383 16.383zm0 120.82H157.53c-9.054 0-16.383-7.328-16.383-16.382 0-9.051 7.329-16.383 16.383-16.383h161.85c9.05 0 16.383 7.332 16.383 16.383 0 9.054-7.332 16.382-16.383 16.382zm0 120.848h-57.313c-9.054 0-16.382-7.328-16.382-16.383 0-9.05 7.328-16.382 16.382-16.382h57.313c9.05 0 16.383 7.332 16.383 16.382 0 9.055-7.332 16.383-16.383 16.383zm69.434-217.703a16.356 16.356 0 01-11.59-4.793l-25.168-25.168c-6.399-6.41-6.399-16.773 0-23.172 6.398-6.398 16.78-6.398 23.172 0l13.578 13.586 43.504-43.512c6.398-6.398 16.78-6.398 23.171 0 6.399 6.407 6.399 16.774 0 23.172l-55.093 55.094a16.3 16.3 0 01-11.574 4.793zm0 122.957a16.386 16.386 0 01-11.59-4.8l-25.168-25.177c-6.399-6.398-6.399-16.773.008-23.164 6.398-6.398 16.773-6.406 23.164.008l13.578 13.578 43.504-43.496c6.398-6.398 16.78-6.398 23.171 0 6.399 6.41 6.399 16.785 0 23.172l-55.093 55.086a16.387 16.387 0 01-11.574 4.793zm0 122.949a16.37 16.37 0 01-11.59-4.8l-25.168-25.176c-6.399-6.399-6.399-16.774.008-23.164 6.398-6.399 16.773-6.407 23.164.007l13.578 13.579 43.504-43.493c6.398-6.398 16.78-6.398 23.171 0 6.399 6.407 6.399 16.782 0 23.172l-55.093 55.086a16.35 16.35 0 01-11.574 4.79zM215.89 406.234c-7.445 0-14.183-5.113-15.937-12.683l-15.062-64.742H47.43l-15.086 64.75c-2.043 8.812-10.871 14.343-19.676 12.238-8.813-2.047-14.29-10.86-12.238-19.672l18.043-77.418a16.37 16.37 0 0115.957-12.664h163.472a16.378 16.378 0 0115.957 12.676l18.004 77.414c2.051 8.812-3.433 17.617-12.246 19.664-1.25.305-2.492.437-3.726.437zm0 0"/><path fill="#0837c3" d="M166.004 406.234c-8.207 0-15.29-6.152-16.258-14.504l-8.996-77.414c-1.04-8.988 5.395-17.117 14.383-18.164 9.062-1.011 17.129 5.403 18.168 14.387l9 77.414c1.039 8.988-5.399 17.117-14.387 18.164-.64.082-1.289.117-1.91.117zm-49.848-.011c-9.05 0-16.383-7.328-16.383-16.383v-77.414c0-9.051 7.332-16.383 16.383-16.383s16.383 7.332 16.383 16.383v77.414c0 9.055-7.34 16.383-16.383 16.383zm-49.866.011a17.73 17.73 0 01-1.919-.117c-8.988-1.047-15.422-9.183-14.375-18.176l9.035-77.414c1.055-8.988 9.239-15.343 18.176-14.375 8.988 1.047 15.422 9.184 14.375 18.176l-9.035 77.414c-.984 8.352-8.059 14.492-16.258 14.492zm124.265 105.758H40.066c-9.054 0-16.382-7.328-16.382-16.383v-72.976c0-9.051 7.328-16.383 16.382-16.383 9.051 0 16.383 7.332 16.383 16.383v56.605h117.73v-56.597c0-9.051 7.329-16.38 16.383-16.38 9.051 0 16.383 7.329 16.383 16.38v72.98c-.02 9.043-7.347 16.371-16.39 16.371zm0 0"/></svg>