<svg width="20" height="20" id="Layer_1" viewBox="0 0 512 512" xmlns="http://www.w3.org/2000/svg"><path d="M256 23.311c-128.306 0-232.689 104.384-232.689 232.688 0 128.306 104.384 232.69 232.689 232.69s232.689-104.385 232.689-232.69S384.306 23.311 256 23.311zm0 450.367c-120.026 0-217.678-97.65-217.678-217.679 0-120.027 97.651-217.676 217.678-217.676 120.028 0 217.678 97.649 217.678 217.676 0 120.028-97.65 217.679-217.678 217.679zm75.854-293.531a7.505 7.505 0 010 10.614l-58.987 58.988a17.98 17.98 0 011.115 6.251c0 9.931-8.05 17.982-17.982 17.982-9.931 0-17.98-8.052-17.98-17.982 0-.575.027-1.145.08-1.706l-51.049-29.472a7.475 7.475 0 017.447-12.96l51.073 29.486A17.896 17.896 0 01256 238.016c2.199 0 4.305.395 6.253 1.118l58.987-58.987a7.505 7.505 0 0110.614 0zM256 60.537c-107.777 0-195.461 87.685-195.461 195.462 0 107.779 87.684 195.464 195.461 195.464 107.779 0 195.463-87.685 195.463-195.464 0-107.777-87.684-195.462-195.463-195.462zm0 375.914c-99.5 0-180.449-80.95-180.449-180.452 0-99.5 80.949-180.45 180.449-180.45 99.502 0 180.451 80.95 180.451 180.45 0 99.502-80.949 180.452-180.451 180.452zm-7.506-318.358V91.228a7.506 7.506 0 1115.012 0v26.865c0 4.146-3.36 7.506-7.506 7.506s-7.506-3.36-7.506-7.506zM428.279 256a7.506 7.506 0 01-7.506 7.506h-26.867a7.506 7.506 0 110-15.012h26.867a7.506 7.506 0 017.506 7.506zM263.506 393.906v26.867c0 4.146-3.36 7.506-7.506 7.506s-7.506-3.36-7.506-7.506v-26.867a7.506 7.506 0 1115.012 0zM125.6 256a7.506 7.506 0 01-7.506 7.506H91.229A7.505 7.505 0 0183.723 256a7.505 7.505 0 017.506-7.506h26.865A7.507 7.507 0 01125.6 256z"/></svg>