<svg width="65" height="65" version="1.1" id="Capa_1" xmlns="http://www.w3.org/2000/svg" x="0" y="0" viewBox="0 0 362 362" xml:space="preserve"><g fill="#0837c3"><path d="M297.061 131.019c-6.336-5.338-15.8-4.53-21.137 1.805l-42.791 50.782-49.673-21.795c-7.817-3.427-17.271-1.011-22.487 5.753L123.271 216.5H75c-8.284 0-15 6.716-15 15s6.716 15 15 15h52.65c6.302 0 12.861-3.226 16.713-8.222l35.044-45.484 49.198 21.585c7.537 3.307 16.864 1.14 22.176-5.16l48.085-57.065c5.338-6.334 4.531-15.797-1.805-21.135z"/><path d="M332 16.5H30c-16.542 0-30 13.458-30 30v269c0 16.542 13.458 30 30 30h302c16.542 0 30-13.458 30-30v-269c0-16.542-13.458-30-30-30zM117.837 45.887c5.675 0 10.276 4.601 10.276 10.276s-4.601 10.276-10.276 10.276-10.276-4.601-10.276-10.276 4.601-10.276 10.276-10.276zm-36.466 0c5.675 0 10.276 4.601 10.276 10.276s-4.601 10.276-10.276 10.276-10.276-4.601-10.276-10.276c-.001-5.675 4.6-10.276 10.276-10.276zm-36.467 0c5.675 0 10.276 4.601 10.276 10.276s-4.601 10.276-10.276 10.276-10.276-4.601-10.276-10.276 4.601-10.276 10.276-10.276zM332 315.5H30v-228h302.003l.016 228H332z"/></g></svg>