<svg width="65" height="65" id="Layer_1" viewBox="0 0 512.004 512.004" xmlns="http://www.w3.org/2000/svg"><g fill="#0837c3"><path d="M14.954 142.467h482c8.284 0 15-6.716 15-15s-6.716-15-15-15h-17.133V15c0-8.284-6.716-15-15-15h-96.4c-8.284 0-15 6.716-15 15v97.467h-34.267V15c0-8.284-6.716-15-15-15h-96.4c-8.284 0-15 6.716-15 15v97.467h-34.267V15c0-8.284-6.716-15-15-15h-96.4c-8.284 0-15 6.716-15 15v97.467H14.954c-19.876.735-19.869 29.268 0 30zM383.421 30h66.4v82.467h-66.4zm-160.667 0h66.4v82.467h-66.4zM62.088 30h66.4v82.467h-66.4zm449.866 274.2c0-8.284-6.716-15-15-15h-17.133v-97.467c0-8.284-6.716-15-15-15h-96.4c-8.284 0-15 6.716-15 15v89.473a118.257 118.257 0 00-17.706 7.994h-16.561v-97.467c0-8.284-6.716-15-15-15h-96.4c-8.284 0-15 6.716-15 15V289.2h-34.267v-97.467c0-8.284-6.716-15-15-15h-96.4c-8.284 0-15 6.716-15 15V289.2H14.954c-19.858.727-19.887 29.261 0 30h285.288c-61.896 75.706-5.768 193.681 92.899 192.799 98.655.885 154.8-117.112 92.895-192.799h10.917c8.286 0 15.001-6.716 15.001-15zm-383.466-15h-66.4v-82.467h66.4zm160.667 0h-66.4v-82.467h66.4zm94.266-82.467h66.4v82.024c-20.131-10.98-43.441-15.892-66.4-13.993zM393.14 482c-48.973 0-88.815-39.842-88.815-88.814 4.465-117.664 173.182-117.632 177.63.001C481.954 442.158 442.113 482 393.14 482z"/><path d="M413.678 361.812l-30.919 30.92-10.16-10.155c-5.859-5.857-15.357-5.856-21.213.004-5.856 5.859-5.854 15.356.004 21.213l20.766 20.758c5.858 5.856 15.354 5.855 21.211-.002l41.524-41.524c5.858-5.857 5.858-15.355 0-21.213s-15.356-5.858-21.213-.001z"/></g></svg>