<svg width="30" height="30" version="1.1" id="Capa_1" xmlns="http://www.w3.org/2000/svg" x="0" y="0" viewBox="0 0 512 512" xml:space="preserve"><path d="M270.24 142.38c-16.674-16.73-43.383-17.904-61.46-2.7l-102.76 87.14c-5.476 4.645-6.15 12.849-1.505 18.325 4.645 5.476 12.849 6.15 18.325 1.505l102.72-87.14c7.691-6.47 19.056-5.97 26.15 1.15 7.475 7.56 7.406 19.748-.153 27.223-.15.148-.302.294-.457.437l-65.19 60.36a13 13 0 00-2.89 15.12 92.181 92.181 0 015.33 65.2c-1.991 6.904 1.991 14.114 8.895 16.105s14.114-1.991 16.105-8.895a118.13 118.13 0 00-3-74.66l58.48-54.15a44.88 44.88 0 0014.47-32.21 44.889 44.889 0 00-13.06-32.81z"/><path d="M360.02 261.59h-104c-7.18 0-13 5.82-13 13s5.82 13 13 13h104c7.18 0 13-5.82 13-13s-5.82-13-13-13zm108.79 7.83c-8.1-6.3-19-11.07-32.38-14.19l-.46-.11c-30.32-6.93-30.32-20.06-30.32-24.38 0-16.47 14.21-23.99 27.42-23.99a27.38 27.38 0 0125.3 16.83c2.778 6.627 10.403 9.748 17.03 6.97 6.627-2.778 9.748-10.403 6.97-17.03a53.3 53.3 0 00-36.28-31.17v-11.51c0-7.18-5.82-13-13-13s-13 5.82-13 13v11.29c-23.76 5.16-40.42 24.36-40.42 48.67 0 14.19 6.1 26.44 17.65 35.43 8.1 6.3 19 11.07 32.39 14.19l.45.11c30.32 6.93 30.32 20.06 30.32 24.38 0 16.52-14.21 24-27.42 24a27.38 27.38 0 01-25.3-16.83c-2.778-6.627-10.403-9.748-17.03-6.97-6.627 2.778-9.748 10.403-6.97 17.03a53.3 53.3 0 0036.31 31.17v11.5c0 7.18 5.82 13 13 13s13-5.82 13-13v-11.3c23.74-5.17 40.39-24.37 40.39-48.66 0-14.19-6.1-26.44-17.65-35.43z"/><path d="M450.54 0h-299c-17.89.022-32.388 14.52-32.41 32.41v64.45l-39.29 39.25a106.174 106.174 0 00-31.3 75.57v194.63h-10c-7.18 0-13 5.82-13 13V499c0 7.18 5.82 13 13 13h.04c7.18 0 13-5.82 13-13v-66.69h223.77V499c0 7.18 5.82 13 13 13s13-5.82 13-13v-79.69c0-7.18-5.82-13-13-13h-20.13V392.5a108 108 0 0043.74-73.83c.914-7.122-4.118-13.636-11.24-14.55-7.122-.914-13.636 4.118-14.55 11.24a82.11 82.11 0 01-37.87 59.24 13 13 0 00-6.08 11v20.7H74.54V211.68a80.34 80.34 0 0123.69-57.18l20.87-20.87v27.69c0 7.18 5.82 13 13 13s13-5.82 13-13V93.78h311.85V145c0 7.18 5.82 13 13 13s13-5.82 13-13V32.41C482.928 14.52 468.43.022 450.54 0zm6.38 67.78H145.1V32.41a6.42 6.42 0 016.41-6.41h299a6.42 6.42 0 016.41 6.41v35.37z"/><path d="M234.85 454.65h-7.7c-7.18 0-13 5.82-13 13s5.82 13 13 13h7.7c7.18 0 13-5.82 13-13s-5.82-13-13-13z"/></svg>