<svg width="20" height="20" version="1.1" id="Capa_1" xmlns="http://www.w3.org/2000/svg" x="0" y="0" viewBox="0 0 512.096 512.096" xml:space="preserve"><path d="M504.104 404.53l-95.715-95.715c-10.659-10.659-28.002-10.66-38.661 0l-27.348 27.347c-10.659 10.659-10.659 28.002 0 38.661l1.18 1.18-14.475 14.475a6.795 6.795 0 01-.815.316c-39.682-28.807-77.249-60.861-111.687-95.299-34.506-34.506-66.554-72.064-95.287-111.665.093-.31.2-.611.302-.831a4114.019 4114.019 0 0114.594-14.365l1.084 1.084c5.329 5.33 12.33 7.994 19.33 7.994 7.001 0 14.001-2.665 19.331-7.994l27.347-27.347c10.659-10.659 10.659-28.002 0-38.661L107.569 7.994c-10.659-10.659-28.002-10.66-38.661 0L41.56 35.342c-8.692 8.691-10.293 21.826-4.811 32.158L21.048 83.201c-25.523 25.542-28.21 69.368-5.95 97.747 93.054 116.66 199.39 222.996 316.104 316.093 12.88 10.102 28.962 15.056 45.074 15.055 19.326 0 38.694-7.128 52.624-21.048l15.7-15.7a27.363 27.363 0 0012.827 3.184c7.001 0 14.001-2.665 19.331-7.994l27.347-27.347c5.148-5.148 7.984-12.014 7.984-19.331s-2.836-14.182-7.985-19.33zm-11.313 27.348l-27.347 27.347c-4.421 4.42-11.613 4.42-16.034 0l-47.861-47.861a8 8 0 00-11.313 0 7.998 7.998 0 000 11.313l42.204 42.204-14.852 14.852c-19.672 19.658-54.709 21.818-76.46 4.759C225.4 392.181 119.916 286.697 27.647 171.022c-17.1-21.801-14.939-56.839 4.717-76.509l14.854-14.854 8.019 8.019a8 8 0 0011.313 0 7.998 7.998 0 000-11.313L52.874 62.689c-2.126-2.126-3.297-4.974-3.297-8.017 0-3.043 1.171-5.89 3.297-8.017l27.348-27.347c4.421-4.42 11.613-4.419 16.034 0l95.715 95.715c4.42 4.421 4.42 11.613 0 16.034l-27.347 27.347c-4.421 4.421-11.613 4.42-16.034 0l-6.516-6.516-.015-.015-48.162-48.162a8 8 0 00-11.313 0 7.998 7.998 0 000 11.313l42.295 42.295c-1.439 1.408-3.021 2.96-4.603 4.515a5512.612 5512.612 0 00-10.336 10.191l-.113.114c-3.32 3.418-6.991 13.207-3.027 18.947l.095.135c29.595 41.017 62.693 79.906 98.374 115.587 35.684 35.684 74.665 68.847 115.858 98.567l.152.107c1.671 1.148 3.712 1.614 5.844 1.614 4.976 0 10.441-2.539 12.833-4.863l.082-.081 14.836-14.836 8.018 8.018a7.999 7.999 0 0011.313 0 7.998 7.998 0 000-11.313l-20.512-20.511c-4.42-4.421-4.42-11.613 0-16.034l27.348-27.347c4.421-4.42 11.613-4.419 16.034 0l95.715 95.716c2.126 2.126 3.297 4.973 3.297 8.017s-1.17 5.889-3.296 8.016z"/></svg>