<svg width="30" height="30" version="1.1" id="Capa_1" xmlns="http://www.w3.org/2000/svg" x="0" y="0" viewBox="0 0 494.871 494.871" xml:space="preserve"><path d="M245.291 185.765a5.421 5.421 0 00-1.001-1.001l.08-.02-79.5-61.26a5.42 5.42 0 00-8.74 4.28l-.12 25.24H92.13a5.44 5.44 0 00-5.44 5.44v61.22a5.44 5.44 0 005.44 5.44h63.78l-.46 24.84a5.44 5.44 0 008.72 4.66l80.12-61.24a5.418 5.418 0 001.001-7.599zm-78.76 53.4l.3-19.44a5.42 5.42 0 00-5.359-5.48H97.591v-50.36h63.86a5.44 5.44 0 005.44-5.44v-19.68l65.2 50.26-65.56 50.14z"/><path d="M494.631 282.445l-17.58-57.84a5.407 5.407 0 00-1.12-2.3l-79.62-96.12a5.44 5.44 0 00-4.36-2.2h-74.2v-30a5.44 5.44 0 00-5.44-5.44H20.891a5.44 5.44 0 00-5.44 5.4v185.54a19.84 19.84 0 00-15.44 20v34.48c.022 11.523 9.357 20.858 20.88 20.88h24.82c3.061 31.342 30.95 54.269 62.292 51.208 27.109-2.648 48.56-24.099 51.208-51.208h192.24c3.061 31.342 30.95 54.269 62.292 51.208 27.109-2.648 48.56-24.099 51.208-51.208h8.98a20.819 20.819 0 0014.72-6.12 20.82 20.82 0 006.14-14.74l.08.04v-50a5.452 5.452 0 00-.24-1.58zM26.351 99.385h280.5v179.28h-280.5V99.385zm108.72 282.7c-18.006 18.016-47.208 18.023-65.224.016-18.016-18.006-18.023-47.208-.016-65.224 18.006-18.016 47.208-18.023 65.224-.016a46.12 46.12 0 0113.516 32.624 46.005 46.005 0 01-13.5 32.6zm305.82 0c-18.006 18.016-47.208 18.023-65.224.016s-18.023-47.208-.016-65.224c18.006-18.016 47.208-18.023 65.224-.016a46.12 46.12 0 0113.516 32.624 46.005 46.005 0 01-13.5 32.6zm43.16-48.06l-.04.06a10.003 10.003 0 01-2.92 7.06 10.003 10.003 0 01-7.06 2.92h-8.98s-7.58-51.56-56.76-51.56c-39.56 0-55.06 33.88-56.76 51.56h-192.32s-6-51.56-56.76-51.56c-33.26 0-53.76 24.64-56.76 51.56h-24.8c-5.523 0-10-4.477-10-10v-34.58a10.22 10.22 0 0110-10h291.4a5.44 5.44 0 005.44-5.44v-149.16h71.72l77.46 93.66 17.14 56.38v49.1z"/><path d="M458.451 260.425l.02.06-7.3-27a5.399 5.399 0 00-1.3-2.34l-66-80a5.402 5.402 0 00-4.2-2h-43.4a5.44 5.44 0 00-5.44 5.44v107.22a5.44 5.44 0 005.44 5.44h116.94a5.42 5.42 0 005.24-6.82zm-116.72-3.94v-96.46h35.44l63.8 77.34 5.16 19.1-104.4.02zm83.763 75.822l-.043-.043c-9.47-9.494-24.843-9.513-34.337-.043l-.043.043c-9.494 9.47-9.513 24.843-.043 34.337l.043.043c9.47 9.494 24.843 9.513 34.337.043l.043-.043c9.494-9.47 9.513-24.843.043-34.337zm-7.703 26.678c-5.297 5.247-13.845 5.205-19.092-.092s-5.205-13.845.092-19.092 13.845-5.205 19.092.092a13.502 13.502 0 013.908 9.572 13.444 13.444 0 01-4 9.52zm-298.097-26.678l-.043-.043c-9.47-9.494-24.843-9.513-34.337-.043l-.043.043c-9.494 9.47-9.513 24.843-.043 34.337l.043.043c9.47 9.494 24.843 9.513 34.337.043l.043-.043c9.494-9.47 9.513-24.843.043-34.337zm-7.703 26.678c-5.297 5.247-13.845 5.205-19.092-.092-5.247-5.297-5.205-13.845.092-19.092 5.297-5.247 13.845-5.205 19.092.092a13.502 13.502 0 013.908 9.572 13.443 13.443 0 01-4.02 9.52h.02z"/></svg>